<svg width="26" height="34" viewBox="0 0 26 34" fill="none" xmlns="http://www.w3.org/2000/svg">
<rect width="25.9691" height="34" rx="5" fill="#EBEBEB"/>
<circle cx="14" cy="11" r="3.5" fill="white" stroke="#FFA101" stroke-width="3"/>
<path d="M4 10.2857C4 8.52381 5.1391 6.71351 6.9982 5.29291C8.84317 3.88311 11.2237 3 13.3571 3C15.505 3 17.7055 3.80624 19.3585 5.11071C21.0139 6.41711 22.0238 8.13805 22.0238 9.94048C22.0238 11.5956 22.0076 12.9651 21.0404 15.8354C20.2002 18.329 18.8306 21.3912 17.3751 24.129C16.1509 26.4318 14.9083 28.4239 13.9084 29.6521C13.5043 29.3066 13.032 28.8379 12.5074 28.2517C11.6757 27.3224 10.7599 26.1512 9.83859 24.8336C7.99312 22.1946 6.16262 19.0218 4.9596 16.1173C4.21262 14.3139 3.99998 11.6282 4 10.2857Z" stroke="#1D3124" stroke-width="2"/>
</svg>
