<svg width="21" height="29" viewBox="0 0 21 29" fill="none" xmlns="http://www.w3.org/2000/svg">
<circle cx="11" cy="10" r="4" fill="white" stroke="#FFA101" stroke-width="2"/>
<path d="M0.5 8.28572C0.5 6.30841 1.76835 4.36755 3.69462 2.89562C5.61383 1.42909 8.09874 0.5 10.3571 0.5C12.6228 0.5 14.9314 1.3475 16.6683 2.71821C18.4064 4.08988 19.5238 5.94291 19.5238 7.94048C19.5238 9.63115 19.5039 11.0582 18.5143 13.9951C17.6632 16.5208 16.2814 19.6084 14.8166 22.3637C13.4641 24.9077 12.0667 27.119 10.9749 28.3459C10.4582 27.962 9.83173 27.364 9.13477 26.5851C8.28688 25.6376 7.35877 24.45 6.42883 23.1202C4.56757 20.4585 2.71755 17.2539 1.49766 14.3087C0.71241 12.4128 0.499985 9.64743 0.5 8.28572Z" stroke="#1D3124"/>
</svg>
