<svg width="28" height="28" viewBox="0 0 28 28" fill="none" xmlns="http://www.w3.org/2000/svg">
<path d="M5.11263 0C2.28046 0 0 2.28046 0 5.11262V22.8873C0 25.7195 2.28046 28 5.11263 28H14.7464V17.0537H11.8519V13.1127H14.7464V9.74574C14.7464 7.10045 16.4566 4.67162 20.3963 4.67162C21.9914 4.67162 23.1709 4.82475 23.1709 4.82475L23.0781 8.50501C23.0781 8.50501 21.8752 8.49364 20.5625 8.49364C19.1418 8.49364 18.914 9.14823 18.914 10.2349V13.1128H23.191L23.0046 17.0538H18.914V28H22.8874C25.7195 28 28 25.7195 28 22.8874V5.11265C28 2.28048 25.7195 2.79999e-05 22.8874 2.79999e-05H5.1126L5.11263 0Z" fill="#1D3124" fill-opacity="0.8"/>
</svg>
