<svg width="28" height="28" viewBox="0 0 28 28" fill="none" xmlns="http://www.w3.org/2000/svg">
<path d="M18.6687 14.0038C18.6687 16.5745 16.5707 18.6723 14 18.6723C11.4293 18.6723 9.33135 16.5745 9.33135 14.0038C9.33135 11.4331 11.4293 9.3352 14 9.3352C16.5707 9.3352 18.6687 11.4331 18.6687 14.0038ZM14 0.00156291C15.9333 0.00156291 17.8491 -0.0159494 19.7789 0.0926219C22.0204 0.201193 24.0098 0.712529 25.6489 2.35161C27.2915 3.99419 27.7993 5.97999 27.9079 8.22146C28.0165 10.1547 27.999 12.0705 27.999 14.0003C27.999 15.9335 28.0165 17.8493 27.9079 19.7791C27.7993 22.0205 27.288 24.0098 25.6489 25.6489C24.0063 27.2915 22.0204 27.7993 19.7789 27.9079C17.8456 28.0165 15.9298 27.999 14 27.999C12.0702 27.999 10.1509 28.0165 8.2211 27.9079C5.97958 27.7993 3.99024 27.288 2.35113 25.6489C0.708521 24.0063 0.200678 22.0205 0.0921045 19.7791C-0.0164688 17.8458 0.00104174 15.93 0.00104174 14.0003C0.00104174 12.067 -0.0164688 10.1512 0.0921045 8.22146C0.200678 5.97999 0.712023 3.99068 2.35113 2.35161C3.99374 0.709027 5.97958 0.201193 8.2211 0.0926219C10.1509 -0.0194518 12.0667 0.00156291 14 0.00156291V0.00156291ZM6.81665 14.0038C6.81665 17.9789 10.0248 21.187 14 21.187C17.9752 21.187 21.1834 17.9789 21.1834 14.0038C21.1834 10.0287 17.9752 6.82054 14 6.82054C10.0248 6.82054 6.81665 10.0287 6.81665 14.0038ZM19.7999 6.52635C19.7999 7.45446 20.5494 8.20395 21.4776 8.20395C22.4057 8.20395 23.1552 7.45446 23.1552 6.52635C23.1552 5.59824 22.4057 4.84875 21.4776 4.84875C21.2572 4.84847 21.0389 4.89167 20.8352 4.97588C20.6316 5.06009 20.4465 5.18365 20.2907 5.33949C20.1348 5.49532 20.0113 5.68037 19.9271 5.88403C19.8428 6.08769 19.7996 6.30597 19.7999 6.52635V6.52635Z" fill="#1D3124" fill-opacity="0.8"/>
</svg>
